<svg width="16" height="16" viewBox="0 0 16 16" fill="none" xmlns="http://www.w3.org/2000/svg">
<path fill-rule="evenodd" clip-rule="evenodd" d="M8 16C12.4183 16 16 12.4183 16 8C16 3.58172 12.4183 0 8 0C3.58172 0 0 3.58172 0 8C0 12.4183 3.58172 16 8 16ZM8.65163 9.8196L8.79013 4.72727H7.20987L7.35192 9.8196H8.65163ZM7.39808 11.8438C7.56617 12.0095 7.7674 12.0923 8.00178 12.0923C8.15329 12.0923 8.29297 12.0545 8.42081 11.9787C8.54865 11.9006 8.65163 11.7976 8.72976 11.6697C8.81025 11.5395 8.85168 11.3963 8.85405 11.2401C8.85168 11.008 8.76527 10.8092 8.59482 10.6435C8.42436 10.4777 8.22668 10.3949 8.00178 10.3949C7.7674 10.3949 7.56617 10.4777 7.39808 10.6435C7.23 10.8092 7.14714 11.008 7.1495 11.2401C7.14714 11.4744 7.23 11.6757 7.39808 11.8438Z" fill="#D9D9D9"/>
</svg>
